/* XPM */
static char *kf[] = {
/* width height num_colors chars_per_pixel */
"    32    32        6            1",
/* colors */
". c #000000",
"# c #00ff00",
"a c #7f7f00",
"b c #7f7f7f",
"c c #bfbfbf",
"d c #ffff00",
/* pixels */
"cccccccccccccccccccccccccccccccc",
"cccccccccccccccccccccccccccccccc",
"cbbbbbbbbbbbbbbbbbbbbbbbbbbbbbbb",
"cccccccccccccccccccccccccccccccb",
"cc............................cb",
"cc............................cb",
"cc.ddddddddda..ddddddda.......cb",
"cc...ddddda......ddaaa........cb",
"cc....ddda......dda...........cb",
"cc....ddda.....dda.....da.da..cb",
"cc....ddda....dda.....dddadda.cb",
"cc....ddda...dda....da.da.d.d.cb",
"cc....ddda..dda....dda.ddad.d.cb",
"cc....ddda.dda....d.da........cb",
"cc....dddadda....d..da........cb",
"cc....dddddda....ddddda.......cb",
"cc....dddaddda......da........cb",
"cc....ddda.ddda.....da........cb",
"cc....ddda..ddda..............cb",
"cc....ddda...ddda.............cb",
"cc....ddda....ddda............cb",
"cc....ddda.....ddda...........cb",
"cc....ddda......ddda..........cb",
"cc...dddddaa.....dddaaa.......cb",
"cc.ddddddddda..dddddddda......cb",
"cc............................cb",
"cccccccccccccccccccccccccccccccb",
"cbbbbbbbbbbbbbbbbbbbbbbbbbb##bbb",
"ccccccccccccccccccccccccccc##ccb",
"cbbbbbbbbbbbbbbbbbbbbbbbbbbbbbbb",
".........bccccccccccccb.........",
"..bccccccccccccccccccccccccccb.."
};
